<?xml version="1.0" encoding="UTF-8"?>
<svg id="Layer_1" data-name="Layer 1" xmlns="http://www.w3.org/2000/svg" viewBox="0 0 3000 3000">
  <defs>
    <style>
      .cls-1 {
        fill: #fff;
      }

      .cls-2 {
        fill: #112f6d;
      }
    </style>
  </defs>
  <g>
    <path class="cls-1" d="M1835.92,1420.6c-4.21,20.95-16.5,37.39-37.96,39.22-51.7-60.49-107.1-117.3-167.9-168.69l-48.85-39.54c-62.4-48.4-128.84-90.37-198.66-128.53-3.45-20.76,11.05-36.99,30.56-44.91l15.42-18.53c5.04-6.05,9.46-11.18,18.05-12.16,22.3-2.54,50.1,8.51,71.28,18.86,24.68,12.07,48.02,25.6,71.13,40.92,69.47,46.04,134.01,98.78,192.45,158.1,17.2,17.46,32.68,35.46,47.39,54.7,12.98,16.99,27.11,39.36,29.9,59.75,1.31,9.58-2.97,15.79-8.38,22.62l-14.43,18.2Z"/>
    <circle class="cls-1" cx="1983.3" cy="1323.64" r="70.6"/>
  </g>
  <path class="cls-2" d="M2423.22,1103.31l-73.98,74.22c19.64,32.42,37.03,66.26,43.87,102.66,11.82,62.89-39.99,79.31-57.14,119.84-9.31,22.01-13.74,42.7-27.46,61.94-20.77,29.1-52.07,46.24-88.37,47.49,56.95,329.77-46.16,665.2-272.12,906.88-239.46,256.12-588.27,377.24-933.83,326.82-465.97-68-835.37-439.35-900.37-905.79-48.58-348.67,76.3-699.59,338.65-937.7,186-168.81,425.99-268.35,678.76-276.43-8.74-64.75,28.16-104.77,83.14-132.34,37.9-34.4,45.86-77.72,100.89-80.43,31.7-1.56,63.57,4.81,95.91,15.23,49.34-104.8,144.3-201.73,264.72-203.15,69.5-.82,134.47-10.5,201.63-27.52l94.78-24.02c34.18-8.66,71.4-7.89,104.86,4.38l109.32,40.09c138.58,41.52,241.01,83.23,327.51,206.44l146.09,166c39.27,51.3,97.03,135.29,88.68,197.66l-21.28,158.92c90.46,13.2,158.81,87.59,167.9,174.43,10.03,95.85-48.87,180.71-133.62,209.47-91.76,31.13-187.84-8.89-234.34-87.24-49-82.55-31.95-187.16,42.24-251.4-30.8-103.33-66.06-205.29-108.91-305.51-32.24-75.41-67.43-146.6-112.86-215.01-2.52-4.26-3.35-3.58-2.95.16,32.72,63.92,61.08,127.69,80.42,195.97,7.25,25.59,12.48,50.09,9.47,77.91l-91.63-91.35c-57.52-50.74-117.77-95-182.09-137.92-3.85-2.63-5.99-2.16-2.51,1.47l146.17,123.4c61.9,52.26,142.19,147.49,170.3,224.65,32.17,88.29,7.94,168.22-51.83,239.78ZM2317.99,1390.61l37.23-46.94c13.96-17.6,25.01-33.64,21.62-58.34-7.21-52.58-43.65-110.28-77.14-154.12-37.93-49.65-77.86-96.07-122.23-141.11-150.74-153-317.24-289.05-496.43-407.81-59.59-39.5-119.81-74.41-183.47-105.54-54.62-26.71-126.33-55.22-183.86-48.65-22.14,2.53-33.57,15.74-46.56,31.36l-39.78,47.8c-50.34,20.45-87.73,62.3-78.84,115.86,180.09,98.44,351.47,206.69,512.44,331.53l126,102c156.85,132.55,299.74,279.1,433.11,435.13,55.34-4.72,87.06-47.13,97.92-101.16ZM1338.02,1531.09l-.25-80.07,11.22-50.73c4.24,14.45,10.09,29.75,10.23,45.53l.98,112.41,22.93.94.31,79.32,93.49-.09v-411.11s96.1,0,96.1,0v447.04s29.67-.01,29.67-.01v-476.06s-155.15,0-155.15,0v409.9s-35.81.4-35.81.4l-.14-79.33-21.36-.6-1.66-82.93-39.33-199.48-39.72,199.49c-3.71,18.65,1.09,36.53-1.05,56.16l-16.33-.56-1.38-279.93-17.23-296.08-85.58-38.5-12.87,51.39-27.25-.03-14.28-51.08-85.37,38.3-18.18,311.46-1.68,246.63-35.97.24-.42-51.77-39.33-.5-.03-57.86-171.79-.02-.1,57.92-44.42.13-.05,242.47,29.26.14-.02-212.88,43.75-.11.37-58.44,113.84-.07.34,58.6,38.71-.05.58,51.22,96.08-.29,1.4-288.17,15.78-278.5,37.81-17.39,10.74,39.73,72.52-.1,10.44-39.29,37.74,16.06,16.7,287.16,1.49,299.51,74.29-.09ZM2880.26,1140.51c0-100.58-81.53-182.11-182.11-182.11s-182.11,81.53-182.11,182.11,81.53,182.11,182.11,182.11,182.11-81.53,182.11-182.11ZM736.22,1769.56v29.6s866.46.03,866.46.03v-29.6s-866.46-.03-866.46-.03ZM1350.44,2319.85c-76.26,111.75-229.24,128.58-326.74,40.38-96.75-87.53-95.5-238.96,2.62-324.87,98.58-86.31,249.44-66.79,324.26,42.6l36.61-24.85c-56.91-83.05-154.7-127.15-256.03-112.69-91.49,13.06-173.2,76.92-206.66,166.99-46.64,125.54,8.54,264.08,125.9,324.22,117.58,60.26,262.94,23.14,336.64-87.35l-36.61-24.43Z"/>
</svg>
